<svg height="320" version="1.1" width="320" xmlns="http://www.w3.org/2000/svg" xmlns:xlink="http://www.w3.org/1999/xlink" style="overflow: hidden; position: relative; left: -0.931797px; top: -0.727263px;" viewBox="0 0 320 320" preserveAspectRatio="xMidYMid meet" id="main_svg"><svg height="320" version="1.1" width="320" xmlns="http://www.w3.org/2000/svg" xmlns:xlink="http://www.w3.org/1999/xlink" style="overflow: hidden; position: relative; left: -0.00452385px; top: -0.00453529px;" viewBox="0 0 160 160" preserveAspectRatio="xMidYMid meet" id="imported_svg_layer_1"><path fill="url(#gradient_1si1b1o439ywwnljliwdus)" stroke="none" d="M0,80A80,80,0,1,0,160,80A80,80,0,1,0,0,80" stroke-width="10" opacity="1" fill-opacity="1" transform="matrix(1,0,0,1,0,0)" style="-webkit-tap-highlight-color: rgba(0, 0, 0, 0); opacity: 1; fill-opacity: 1;"></path><desc style="-webkit-tap-highlight-color: rgba(0, 0, 0, 0);">Created with Logotizer</desc><defs style="-webkit-tap-highlight-color: rgba(0, 0, 0, 0);"><linearGradient id="gradient_1si1b1o439ywwnljliwdus" x1="1.8369701987210297e-16" y1="0" x2="0" y2="1" style="-webkit-tap-highlight-color: rgba(0, 0, 0, 0);"><stop offset="0%" stop-color="#de358a" stop-opacity="1" style="-webkit-tap-highlight-color: rgba(0, 0, 0, 0);"></stop><stop offset="100%" stop-color="#284795" stop-opacity="1" style="-webkit-tap-highlight-color: rgba(0, 0, 0, 0);"></stop></linearGradient></defs></svg><svg height="320" version="1.1" width="320" xmlns="http://www.w3.org/2000/svg" xmlns:xlink="http://www.w3.org/1999/xlink" style="overflow: hidden; position: relative; left: -0.00452385px; top: -0.00453529px;" viewBox="0 0 160 160" preserveAspectRatio="xMidYMid meet" id="imported_svg_layer_2"><desc style="-webkit-tap-highlight-color: rgba(0, 0, 0, 0);">Created with Logotizer</desc><defs style="-webkit-tap-highlight-color: rgba(0, 0, 0, 0);"></defs><path fill="#ffffff" stroke="#d5d5d5" d="M147.6,87.5L72.5,12.4C56,-4.1,29.1,-4.1,12.5,12.4S-4.100000000000001,55.9,12.5,72.4L87.6,147.5C104.1,164,131,164,147.6,147.5C164.1,131,164.2,104.1,147.6,87.5ZM57.5,102.5L19.9,64.9C7.499999999999998,52.50000000000001,7.499999999999998,32.300000000000004,19.9,19.900000000000006C32.3,7.500000000000005,52.5,7.500000000000005,64.9,19.900000000000006L102.5,57.50000000000001L57.5,102.5Z" stroke-width="2.2666666666666666" transform="matrix(0.6,0,0,0.6,32.0125,31.98)" style="-webkit-tap-highlight-color: rgba(0, 0, 0, 0); cursor: move;"></path></svg><desc style="-webkit-tap-highlight-color: rgba(0, 0, 0, 0);">Created with Logotizer</desc><defs style="-webkit-tap-highlight-color: rgba(0, 0, 0, 0);"></defs><text x="0" y="0" text-anchor="middle" font-family="open_sans_bold" font-size="220px" stroke="none" fill="#31c292" style="-webkit-tap-highlight-color: rgba(0, 0, 0, 0); text-anchor: middle; font-family: open_sans_bold; font-size: 220px; cursor: move; opacity: 1; display: none;" transform="matrix(1,0,0,1,160,238.5254)" opacity="1"><tspan dy="0" style="-webkit-tap-highlight-color: rgba(0, 0, 0, 0);">L</tspan></text></svg>