<svg height="89.1635827392578" version="1.1" width="500.2745865214047" xmlns="http://www.w3.org/2000/svg" xmlns:xlink="http://www.w3.org/1999/xlink" style="overflow: hidden; position: relative; left: -0.949981px; top: -0.727265px;" viewBox="56.78770962117349 96.24126328735352 500.2745865214047 89.1635827392578" preserveAspectRatio="xMinYMin" id="main_svg"><desc style="-webkit-tap-highlight-color: rgba(0, 0, 0, 0);">Created with Logotizer</desc><defs style="-webkit-tap-highlight-color: rgba(0, 0, 0, 0);"><linearGradient id="gradient_u3nzf1rqupmei50xiyzsap" x1="1.8369701987210297e-16" y1="0" x2="0" y2="1" style="-webkit-tap-highlight-color: rgba(0, 0, 0, 0);"><stop offset="10%" stop-color="#de358a" stop-opacity="1" style="-webkit-tap-highlight-color: rgba(0, 0, 0, 0);"></stop><stop offset="80%" stop-color="#284795" stop-opacity="1" style="-webkit-tap-highlight-color: rgba(0, 0, 0, 0);"></stop></linearGradient></defs><path fill="url(#gradient_u3nzf1rqupmei50xiyzsap)" stroke="none" d="M103,87.893A4,4.008,0,1,0,111,87.893A4,4.008,0,1,0,103,87.893M117,87.893A10,10,0,1,0,106.135,97.877A42.325,42.325,0,0,1,105.03800000000001,111.574C102.74100000000001,120.318,97.471,125.574,88.179,125.974C78.803,126.379,73.51,119.97800000000001,71.305,108.659A64.862,64.862,0,0,1,70.25500000000001,94.74900000000001A5.015,5.015,0,0,0,73.77700000000002,91.382C80.77200000000002,89.38600000000001,85.86700000000002,81.739,89.48100000000002,70.285A105.224,105.224,0,0,0,92.83400000000002,55.937999999999995C93.11700000000002,54.22899999999999,93.34400000000002,52.641999999999996,93.51800000000001,51.215999999999994A69.2,69.2,0,0,0,93.71100000000001,49.474999999999994A6.622,6.622,0,0,0,87,41.795H83.5V40.796A1.148,1.148,0,0,0,82.502,39.68L76.497,39.011A1.755,1.755,0,0,0,74.5,40.791000000000004V45.806000000000004A1.755,1.755,0,0,0,76.497,47.586000000000006L82.502,46.91700000000001A1.14,1.14,0,0,0,83.5,45.80100000000001V44.80100000000001H87A3.64,3.64,0,0,1,90.732,49.12800000000001C90.725,49.20100000000001,90.711,49.349000000000004,90.688,49.568000000000005C90.648,49.93600000000001,90.60000000000001,50.364000000000004,90.541,50.848000000000006A111.22,111.22,0,0,1,89.875,55.44500000000001A102.29,102.29,0,0,1,86.62,69.37800000000001C83.438,79.46500000000002,79.13900000000001,86.14500000000001,73.71000000000001,88.21200000000002A4.999,4.999,0,0,0,64.26500000000001,88.28300000000002C58.746000000000016,86.30100000000002,54.38300000000002,79.58300000000001,51.164000000000016,69.37800000000001A102.3,102.3,0,0,1,47.90900000000001,55.445000000000014A111.288,111.288,0,0,1,47.243000000000016,50.84800000000001A77.16,77.16,0,0,1,47.052000000000014,49.128000000000014A3.64,3.64,0,0,1,50.78400000000001,44.802000000000014H54.28400000000001V45.801000000000016A1.14,1.14,0,0,0,55.28100000000001,46.917000000000016L61.286000000000016,47.58600000000001A1.755,1.755,0,0,0,63.28400000000001,45.80600000000001V40.79100000000001A1.755,1.755,0,0,0,61.286000000000016,39.01100000000001L55.28100000000001,39.68100000000001A1.148,1.148,0,0,0,54.28400000000001,40.796000000000014V41.796000000000014H50.78400000000001A6.622,6.622,0,0,0,44.073000000000015,49.47300000000001A79.727,79.727,0,0,0,44.26600000000001,51.21400000000001C44.44000000000001,52.64100000000001,44.66600000000001,54.228000000000016,44.94900000000001,55.93700000000001A105.242,105.242,0,0,0,48.30300000000001,70.284C51.95700000000001,81.867,57.12700000000001,89.55600000000001,64.24300000000001,91.447A5.02,5.02,0,0,0,67.25800000000001,94.595A67.783,67.783,0,0,0,68.36000000000001,109.235C70.81600000000002,121.837,77.12000000000002,129.46,88.30800000000002,128.977C99.05800000000002,128.514,105.33400000000002,122.254,107.93900000000002,112.33800000000001A45.184,45.184,0,0,0,109.12900000000002,97.686A10.02,10.02,0,0,0,117,87.893ZM107,94.908A7.015,7.015,0,1,1,114,87.893A7.007,7.007,0,0,1,107,94.908Z" stroke-width="0" opacity="1" fill-opacity="1" stroke-opacity="1" transform="matrix(0.8,0,0,0.8,21.5986,72.7992)" style="-webkit-tap-highlight-color: rgba(0, 0, 0, 0); opacity: 1; fill-opacity: 1;"></path><path fill="#284795" stroke="none" d="M-126.92,0L-126.92,-33.61L-106.99,-33.61L-106.99,-27.75L-120.35,-27.75L-120.35,-19.92L-108.19,-19.92L-108.19,-14.06L-120.35,-14.06L-120.35,-5.86L-106.76,-5.86L-106.76,0L-126.92,0ZM-105.56,-0.42L-104.79,-5.63Q-104.02,-5.34,-103.36,-5.32Q-102.4,-5.32,-101.67,-6.14Q-100.95,-6.96,-100.44,-9.07Q-99.94,-11.18,-99.64,-14.8Q-99.33,-18.42,-99.17,-24L-82.71,-24L-82.71,0L-88.95,0L-88.95,-18.47L-93.71,-18.47Q-93.99,-15.07,-94.37,-11.71Q-94.76,-8.34,-95.6,-5.68Q-96.45,-3.02,-97.89,-1.37Q-99.33,0.28,-101.63,0.28Q-104.42,0.28,-105.56,-0.42ZM-78.45,-12Q-78.45,-18.33,-75.42,-21.5Q-72.4,-24.68,-66.94,-24.68Q-65.11,-24.68,-63.39,-24.2Q-61.67,-23.72,-60.32,-22.62Q-58.97,-21.52,-58.15,-19.64Q-57.33,-17.77,-57.33,-14.98Q-57.33,-13.97,-57.46,-12.82Q-57.59,-11.67,-57.82,-10.41L-72.21,-10.41Q-72.07,-7.38,-70.65,-5.85Q-69.24,-4.31,-66.07,-4.31Q-64.1,-4.31,-62.55,-4.92Q-60.99,-5.53,-60.17,-6.14L-58.1,-2.06Q-59.53,-0.91,-62.01,-0.12Q-64.48,0.68,-67.27,0.68Q-73.08,0.68,-75.76,-2.71Q-78.45,-6.09,-78.45,-12M-72.07,-14.3L-63.14,-14.3Q-62.96,-16.9,-63.94,-18.29Q-64.92,-19.69,-67.03,-19.69Q-69.47,-19.69,-70.65,-18.22Q-71.84,-16.76,-72.07,-14.3ZM-52.92,0L-52.92,-24L-46.69,-24L-46.69,-14.98L-38.86,-14.98L-38.86,-24L-32.63,-24L-32.63,0L-38.86,0L-38.86,-9.45L-46.69,-9.45L-46.69,0L-52.92,0ZM-28.81,-6.63Q-28.81,-8.84,-27.82,-10.35Q-26.84,-11.86,-24.99,-12.8Q-23.14,-13.73,-20.57,-14.09Q-18,-14.44,-14.84,-14.3Q-14.51,-16.99,-15.23,-18.16Q-15.94,-19.34,-18.45,-19.34Q-20.32,-19.34,-22.41,-18.96Q-24.49,-18.59,-25.83,-17.95L-27.31,-22.62Q-25.39,-23.48,-22.75,-23.98Q-20.11,-24.47,-17.23,-24.47Q-14.74,-24.47,-13.06,-23.87Q-11.37,-23.27,-10.4,-22.17Q-9.42,-21.07,-9.01,-19.54Q-8.6,-18,-8.6,-16.08Q-8.6,-13.97,-8.74,-11.84Q-8.89,-9.7,-8.91,-7.64Q-8.93,-5.58,-8.79,-3.63Q-8.65,-1.69,-8.06,0.05L-13.15,0.05L-14.16,-3.26L-14.39,-3.26Q-15.35,-1.78,-17.06,-0.7Q-18.78,0.38,-21.47,0.38Q-23.16,0.38,-24.49,-0.13Q-25.83,-0.63,-26.79,-1.56Q-27.75,-2.48,-28.28,-3.76Q-28.81,-5.04,-28.81,-6.63M-22.36,-7.59Q-22.36,-6.26,-21.56,-5.51Q-20.77,-4.76,-19.39,-4.76Q-17.51,-4.76,-16.41,-5.59Q-15.31,-6.42,-14.79,-7.38L-14.79,-10.52Q-16.27,-10.66,-17.64,-10.56Q-19.01,-10.45,-20.06,-10.13Q-21.12,-9.8,-21.74,-9.18Q-22.36,-8.55,-22.36,-7.59ZM7.22,-16.8Q7.22,-21.75,8.59,-25.08Q9.96,-28.41,12.14,-30.45Q14.32,-32.48,17,-33.38Q19.69,-34.27,22.38,-34.27Q25.26,-34.27,27.26,-33.89Q29.25,-33.52,30.54,-32.98L29.25,-27.4Q28.15,-27.94,26.63,-28.17Q25.12,-28.41,22.97,-28.41Q18.98,-28.41,16.56,-25.58Q14.13,-22.76,14.13,-16.8Q14.13,-14.2,14.7,-12.07Q15.28,-9.94,16.45,-8.43Q17.62,-6.91,19.38,-6.07Q21.14,-5.23,23.44,-5.23Q25.59,-5.23,27.08,-5.66Q28.57,-6.09,29.67,-6.77L31.03,-1.38Q29.48,-0.28,27.1,0.2Q24.72,0.68,22.24,0.68Q19.22,0.68,16.5,-0.26Q13.78,-1.2,11.72,-3.28Q9.65,-5.37,8.44,-8.71Q7.22,-12.05,7.22,-16.8ZM33.3,-6.63Q33.3,-8.84,34.29,-10.35Q35.27,-11.86,37.12,-12.8Q38.97,-13.73,41.54,-14.09Q44.11,-14.44,47.27,-14.3Q47.6,-16.99,46.88,-18.16Q46.17,-19.34,43.66,-19.34Q41.79,-19.34,39.7,-18.96Q37.61,-18.59,36.28,-17.95L34.8,-22.62Q36.72,-23.48,39.36,-23.98Q42,-24.47,44.88,-24.47Q47.36,-24.47,49.05,-23.87Q50.74,-23.27,51.71,-22.17Q52.69,-21.07,53.1,-19.54Q53.51,-18,53.51,-16.08Q53.51,-13.97,53.36,-11.84Q53.22,-9.7,53.2,-7.64Q53.18,-5.58,53.32,-3.63Q53.46,-1.69,54.04,0.05L48.96,0.05L47.95,-3.26L47.72,-3.26Q46.76,-1.78,45.04,-0.7Q43.33,0.38,40.64,0.38Q38.95,0.38,37.61,-0.13Q36.28,-0.63,35.32,-1.56Q34.36,-2.48,33.83,-3.76Q33.3,-5.04,33.3,-6.63M39.75,-7.59Q39.75,-6.26,40.54,-5.51Q41.34,-4.76,42.72,-4.76Q44.6,-4.76,45.7,-5.59Q46.8,-6.42,47.32,-7.38L47.32,-10.52Q45.84,-10.66,44.47,-10.56Q43.1,-10.45,42.04,-10.13Q40.99,-9.8,40.37,-9.18Q39.75,-8.55,39.75,-7.59ZM55.17,-0.42L55.94,-5.63Q56.72,-5.34,57.37,-5.32Q58.33,-5.32,59.06,-6.14Q59.79,-6.96,60.29,-9.07Q60.79,-11.18,61.1,-14.8Q61.4,-18.42,61.57,-24L78.02,-24L78.02,0L71.79,0L71.79,-18.47L67.03,-18.47Q66.75,-15.07,66.36,-11.71Q65.97,-8.34,65.13,-5.68Q64.29,-3.02,62.85,-1.37Q61.4,0.28,59.11,0.28Q56.32,0.28,55.17,-0.42ZM82.29,-12Q82.29,-18.33,85.31,-21.5Q88.33,-24.68,93.79,-24.68Q95.62,-24.68,97.35,-24.2Q99.07,-23.72,100.42,-22.62Q101.76,-21.52,102.58,-19.64Q103.4,-17.77,103.4,-14.98Q103.4,-13.97,103.27,-12.82Q103.15,-11.67,102.91,-10.41L88.52,-10.41Q88.66,-7.38,90.08,-5.85Q91.5,-4.31,94.66,-4.31Q96.63,-4.31,98.19,-4.92Q99.75,-5.53,100.57,-6.14L102.63,-2.06Q101.2,-0.91,98.73,-0.12Q96.26,0.68,93.47,0.68Q87.65,0.68,84.97,-2.71Q82.29,-6.09,82.29,-12M88.66,-14.3L97.59,-14.3Q97.78,-16.9,96.79,-18.29Q95.81,-19.69,93.7,-19.69Q91.26,-19.69,90.08,-18.22Q88.9,-16.76,88.66,-14.3ZM105.16,0L112.94,-12.28L105.75,-24L113.18,-24L116.32,-18.87L117.65,-15.52L119.08,-18.87L122.36,-24L129.11,-24L121.87,-12.47L129.61,0L122.36,0L118.66,-5.77L117.21,-9.3L115.69,-5.77L111.98,0L105.16,0Z" transform="matrix(1,0,0,1,259.5,138.1328)" style="-webkit-tap-highlight-color: rgba(0, 0, 0, 0);" stroke-width="1"></path><path fill="#de358a" stroke="none" d="M-276.92,0L-276.92,-33.61L-253.44,-33.61L-253.44,0L-257.42,0L-257.42,-30.05L-272.94,-30.05L-272.94,0L-276.92,0ZM-247.04,-12Q-247.04,-18.14,-244.3,-21.36Q-241.56,-24.59,-236.47,-24.59Q-234.83,-24.59,-233.2,-24.22Q-231.57,-23.86,-230.28,-22.85Q-229,-21.84,-228.17,-19.99Q-227.35,-18.14,-227.35,-15.12Q-227.35,-13.52,-227.64,-11.63L-243.06,-11.63Q-243.06,-9.52,-242.62,-7.88Q-242.19,-6.23,-241.28,-5.11Q-240.36,-3.98,-238.9,-3.39Q-237.43,-2.79,-235.32,-2.79Q-233.68,-2.79,-232.05,-3.36Q-230.42,-3.94,-229.6,-4.71L-228.17,-1.92Q-229.6,-0.77,-231.8,-0.09Q-233.99,0.59,-236.42,0.59Q-239.17,0.59,-241.18,-0.3Q-243.2,-1.2,-244.49,-2.86Q-245.78,-4.52,-246.41,-6.82Q-247.04,-9.12,-247.04,-12M-243.01,-14.65L-231.1,-14.65Q-231.1,-18.3,-232.49,-19.76Q-233.87,-21.21,-236.42,-21.21Q-239.26,-21.21,-240.96,-19.72Q-242.66,-18.23,-243.01,-14.65ZM-225.83,-3.35L-223,-3.35Q-222.62,-3.89,-221.99,-5.26Q-221.35,-6.63,-220.76,-9.11Q-220.16,-11.58,-219.7,-15.25Q-219.25,-18.91,-219.15,-24L-204.67,-24L-204.67,-3.35L-201.15,-3.35L-201.15,6.09L-203.75,6.09L-204.46,0L-222.5,0L-223.23,6.09L-225.83,6.09L-225.83,-3.35M-219.15,-3.35L-208.49,-3.35L-208.49,-20.65L-215.71,-20.65Q-215.8,-18.63,-216.03,-16.25Q-216.27,-13.88,-216.68,-11.5Q-217.09,-9.12,-217.71,-7.01Q-218.33,-4.9,-219.15,-3.35ZM-196.42,0L-196.42,-24L-192.57,-24L-192.57,-9.35L-192.74,-6.54L-192.53,-6.54L-190.67,-9.52L-179.87,-24L-177.6,-24L-177.6,0L-181.44,0L-181.44,-14.2L-181.3,-17.18L-181.44,-17.18L-183.41,-14.11L-194.21,0L-196.42,0ZM-172.04,-6.42Q-172.04,-8.53,-171.17,-9.95Q-170.31,-11.37,-168.75,-12.21Q-167.19,-13.05,-165.01,-13.42Q-162.83,-13.78,-160.18,-13.78Q-159.5,-13.78,-158.86,-13.78Q-158.21,-13.78,-157.56,-13.69Q-157.42,-15.12,-157.39,-16.27Q-157.39,-18.91,-158.46,-19.97Q-159.53,-21.02,-162.29,-21.02Q-163.11,-21.02,-164.05,-20.91Q-164.99,-20.79,-165.97,-20.57Q-166.96,-20.34,-167.85,-20.04Q-168.74,-19.73,-169.39,-19.34L-170.61,-22.22Q-168.78,-23.32,-166.36,-23.85Q-163.93,-24.38,-161.28,-24.38Q-158.8,-24.38,-157.29,-23.71Q-155.78,-23.04,-154.98,-21.96Q-154.18,-20.88,-153.92,-19.58Q-153.67,-18.28,-153.67,-16.99Q-153.67,-14.11,-153.81,-11.38Q-153.95,-8.65,-153.95,-6.19Q-153.95,-4.41,-153.81,-2.82Q-153.67,-1.24,-153.27,0.09L-156.1,0.09L-157.11,-3.26L-157.35,-3.26Q-157.77,-2.58,-158.42,-1.93Q-159.08,-1.29,-160,-0.79Q-160.91,-0.28,-162.1,0.05Q-163.3,0.38,-164.85,0.38Q-166.39,0.38,-167.71,-0.11Q-169.02,-0.59,-169.98,-1.46Q-170.94,-2.34,-171.49,-3.6Q-172.04,-4.85,-172.04,-6.42M-168.06,-6.82Q-168.06,-5.13,-166.86,-4.05Q-165.67,-2.98,-163.79,-2.98Q-162.46,-2.98,-161.39,-3.34Q-160.32,-3.7,-159.56,-4.25Q-158.8,-4.8,-158.3,-5.47Q-157.79,-6.14,-157.56,-6.77L-157.56,-10.76Q-158.24,-10.8,-158.93,-10.83Q-159.62,-10.85,-160.28,-10.85Q-161.75,-10.85,-163.18,-10.69Q-164.61,-10.52,-165.69,-10.07Q-166.77,-9.61,-167.41,-8.81Q-168.06,-8.02,-168.06,-6.82ZM-150.03,-20.65L-150.03,-24L-131.12,-24L-131.12,-20.65L-138.67,-20.65L-138.67,0L-142.49,0L-142.49,-20.65L-150.03,-20.65ZM-127.32,9.61L-127.32,-24L-124.7,-24L-123.97,-21.12L-123.78,-21.12Q-122.68,-22.8,-120.92,-23.7Q-119.17,-24.59,-116.92,-24.59Q-112.11,-24.59,-109.76,-21.75Q-107.4,-18.91,-107.4,-12.47Q-107.4,-9.45,-108.2,-7.03Q-109,-4.62,-110.44,-2.93Q-111.88,-1.24,-113.92,-0.33Q-115.96,0.59,-118.44,0.59Q-120.22,0.59,-121.25,0.36Q-122.28,0.14,-123.48,-0.38L-123.48,9.61L-127.32,9.61M-123.48,-4.17Q-122.61,-3.49,-121.51,-3.14Q-120.41,-2.79,-118.6,-2.79Q-115.3,-2.79,-113.34,-5.26Q-111.39,-7.73,-111.39,-12.54Q-111.39,-14.51,-111.73,-16.11Q-112.07,-17.72,-112.82,-18.84Q-113.57,-19.97,-114.74,-20.59Q-115.91,-21.21,-117.64,-21.21Q-120.08,-21.21,-121.5,-19.95Q-122.92,-18.68,-123.48,-16.08L-123.48,-4.17ZM-101.38,0L-101.38,-24L-97.53,-24L-97.53,-9.35L-97.7,-6.54L-97.49,-6.54L-95.64,-9.52L-84.83,-24L-82.56,-24L-82.56,0L-86.4,0L-86.4,-14.2L-86.26,-17.18L-86.4,-17.18L-88.37,-14.11L-99.17,0L-101.38,0ZM-77.92,0L-72.15,-8.2L-70.23,-9.98Q-72.71,-10.36,-74.47,-12Q-76.23,-13.64,-76.23,-16.41Q-76.23,-18.56,-75.49,-20.11Q-74.75,-21.66,-73.36,-22.66Q-71.96,-23.67,-70.04,-24.13Q-68.12,-24.59,-65.73,-24.59Q-63.95,-24.59,-62.41,-24.34Q-60.88,-24.09,-59.4,-23.81L-59.4,0L-63.22,0L-63.22,-9.94L-66.92,-9.35L-73.25,0L-77.92,0M-72.25,-16.62Q-72.25,-14.46,-70.55,-13.28Q-68.85,-12.09,-66.06,-12.09Q-66.01,-12.09,-65.92,-12.09Q-65.82,-12.09,-65.53,-12.09Q-65.24,-12.09,-64.71,-12.12Q-64.18,-12.14,-63.22,-12.19L-63.22,-20.74Q-63.85,-20.98,-64.63,-21.09Q-65.4,-21.21,-65.96,-21.21Q-69.03,-21.21,-70.64,-20.11Q-72.25,-19.01,-72.25,-16.62ZM-39.6,0L-39.6,-24L-35.75,-24L-35.75,-9.35L-35.92,-6.54L-35.71,-6.54L-33.85,-9.52L-23.05,-24L-20.78,-24L-20.78,0L-24.62,0L-24.62,-14.2L-24.48,-17.18L-24.62,-17.18L-26.59,-14.11L-37.39,0L-39.6,0ZM-0.6,0L-0.6,-24L3.25,-24L3.25,-13.97L14.08,-13.97L14.08,-24L17.92,-24L17.92,0L14.08,0L14.08,-10.62L3.25,-10.62L3.25,0L-0.6,0ZM23.94,-12Q23.94,-18.14,26.68,-21.36Q29.43,-24.59,34.51,-24.59Q36.15,-24.59,37.78,-24.22Q39.41,-23.86,40.7,-22.85Q41.99,-21.84,42.81,-19.99Q43.63,-18.14,43.63,-15.12Q43.63,-13.52,43.35,-11.63L27.93,-11.63Q27.93,-9.52,28.36,-7.88Q28.79,-6.23,29.71,-5.11Q30.62,-3.98,32.09,-3.39Q33.55,-2.79,35.66,-2.79Q37.3,-2.79,38.93,-3.36Q40.56,-3.94,41.38,-4.71L42.81,-1.92Q41.38,-0.77,39.19,-0.09Q37,0.59,34.56,0.59Q31.82,0.59,29.8,-0.3Q27.79,-1.2,26.5,-2.86Q25.21,-4.52,24.58,-6.82Q23.94,-9.12,23.94,-12M27.97,-14.65L39.88,-14.65Q39.88,-18.3,38.5,-19.76Q37.11,-21.21,34.56,-21.21Q31.72,-21.21,30.02,-19.72Q28.33,-18.23,27.97,-14.65ZM47.78,-12Q47.78,-18.09,50.5,-21.34Q53.22,-24.59,58.3,-24.59Q61,-24.59,62.99,-23.7Q64.98,-22.8,66.27,-21.14Q67.56,-19.48,68.18,-17.16Q68.8,-14.84,68.8,-12Q68.8,-5.91,66.09,-2.66Q63.39,0.59,58.3,0.59Q55.61,0.59,53.61,-0.3Q51.62,-1.2,50.33,-2.86Q49.04,-4.52,48.41,-6.84Q47.78,-9.16,47.78,-12M51.76,-12Q51.76,-10.17,52.13,-8.5Q52.49,-6.82,53.26,-5.57Q54.04,-4.31,55.28,-3.55Q56.52,-2.79,58.3,-2.79Q64.84,-2.74,64.82,-12Q64.82,-13.88,64.47,-15.55Q64.11,-17.23,63.34,-18.48Q62.57,-19.73,61.33,-20.47Q60.08,-21.21,58.3,-21.21Q51.76,-21.26,51.76,-12ZM74.85,0L74.85,-24L78.69,-24L78.69,-13.97L89.52,-13.97L89.52,-24L93.36,-24L93.36,0L89.52,0L89.52,-10.62L78.69,-10.62L78.69,0L74.85,0ZM98.92,-6.42Q98.92,-8.53,99.79,-9.95Q100.65,-11.37,102.21,-12.21Q103.77,-13.05,105.95,-13.42Q108.13,-13.78,110.78,-13.78Q111.46,-13.78,112.1,-13.78Q112.75,-13.78,113.4,-13.69Q113.54,-15.12,113.57,-16.27Q113.57,-18.91,112.5,-19.97Q111.43,-21.02,108.67,-21.02Q107.85,-21.02,106.91,-20.91Q105.97,-20.79,104.99,-20.57Q104,-20.34,103.11,-20.04Q102.22,-19.73,101.57,-19.34L100.35,-22.22Q102.18,-23.32,104.6,-23.85Q107.03,-24.38,109.68,-24.38Q112.16,-24.38,113.67,-23.71Q115.18,-23.04,115.98,-21.96Q116.78,-20.88,117.04,-19.58Q117.29,-18.28,117.29,-16.99Q117.29,-14.11,117.15,-11.38Q117.01,-8.65,117.01,-6.19Q117.01,-4.41,117.15,-2.82Q117.29,-1.24,117.69,0.09L114.86,0.09L113.85,-3.26L113.61,-3.26Q113.19,-2.58,112.54,-1.93Q111.88,-1.29,110.97,-0.79Q110.05,-0.28,108.86,0.05Q107.66,0.38,106.11,0.38Q104.57,0.38,103.25,-0.11Q101.94,-0.59,100.98,-1.46Q100.02,-2.34,99.47,-3.6Q98.92,-4.85,98.92,-6.42M102.9,-6.82Q102.9,-5.13,104.1,-4.05Q105.29,-2.98,107.17,-2.98Q108.5,-2.98,109.57,-3.34Q110.64,-3.7,111.4,-4.25Q112.16,-4.8,112.66,-5.47Q113.17,-6.14,113.4,-6.77L113.4,-10.76Q112.72,-10.8,112.03,-10.83Q111.34,-10.85,110.68,-10.85Q109.21,-10.85,107.78,-10.69Q106.35,-10.52,105.27,-10.07Q104.19,-9.61,103.55,-8.81Q102.9,-8.02,102.9,-6.82ZM120.93,-20.65L120.93,-24L139.84,-24L139.84,-20.65L132.29,-20.65L132.29,0L128.47,0L128.47,-20.65L120.93,-20.65ZM141.5,-12Q141.5,-18.09,144.22,-21.34Q146.94,-24.59,152.03,-24.59Q154.72,-24.59,156.72,-23.7Q158.71,-22.8,160,-21.14Q161.29,-19.48,161.91,-17.16Q162.53,-14.84,162.53,-12Q162.53,-5.91,159.82,-2.66Q157.11,0.59,152.03,0.59Q149.33,0.59,147.34,-0.3Q145.35,-1.2,144.06,-2.86Q142.77,-4.52,142.14,-6.84Q141.5,-9.16,141.5,-12M145.49,-12Q145.49,-10.17,145.85,-8.5Q146.22,-6.82,146.99,-5.57Q147.76,-4.31,149,-3.55Q150.25,-2.79,152.03,-2.79Q158.57,-2.74,158.54,-12Q158.54,-13.88,158.19,-15.55Q157.84,-17.23,157.07,-18.48Q156.29,-19.73,155.05,-20.47Q153.81,-21.21,152.03,-21.21Q145.49,-21.26,145.49,-12ZM164.36,-0.23L164.92,-3.45Q165.5,-3.26,166.18,-3.26Q167.15,-3.26,167.91,-4.08Q168.67,-4.9,169.24,-7.17Q169.82,-9.45,170.2,-13.49Q170.59,-17.53,170.73,-24L185.03,-24L185.03,0L181.21,0L181.21,-20.65L174.25,-20.65Q174.11,-18.63,173.95,-16.3Q173.8,-13.97,173.52,-11.64Q173.24,-9.3,172.76,-7.17Q172.28,-5.04,171.53,-3.41Q170.78,-1.78,169.7,-0.8Q168.62,0.19,167.15,0.19Q166.23,0.19,165.55,0.09Q164.87,0,164.36,-0.23ZM191.08,-12Q191.08,-18.09,193.79,-21.34Q196.51,-24.59,201.6,-24.59Q204.29,-24.59,206.29,-23.7Q208.28,-22.8,209.57,-21.14Q210.86,-19.48,211.48,-17.16Q212.1,-14.84,212.1,-12Q212.1,-5.91,209.39,-2.66Q206.68,0.59,201.6,0.59Q198.9,0.59,196.91,-0.3Q194.92,-1.2,193.63,-2.86Q192.34,-4.52,191.71,-6.84Q191.08,-9.16,191.08,-12M195.06,-12Q195.06,-10.17,195.42,-8.5Q195.79,-6.82,196.56,-5.57Q197.33,-4.31,198.58,-3.55Q199.82,-2.79,201.6,-2.79Q208.14,-2.74,208.11,-12Q208.11,-13.88,207.76,-15.55Q207.41,-17.23,206.64,-18.48Q205.86,-19.73,204.62,-20.47Q203.38,-21.21,201.6,-21.21Q195.06,-21.26,195.06,-12ZM218.15,0L218.15,-24L232.16,-24L232.16,-20.65L221.99,-20.65L221.99,0L218.15,0ZM235.84,0L235.84,-24L239.68,-24L239.68,-9.35L239.52,-6.54L239.73,-6.54L241.58,-9.52L252.39,-24L254.66,-24L254.66,0L250.82,0L250.82,-14.2L250.96,-17.18L250.82,-17.18L248.85,-14.11L238.04,0L235.84,0ZM259.3,0L265.07,-8.2L266.99,-9.98Q264.5,-10.36,262.75,-12Q260.99,-13.64,260.99,-16.41Q260.99,-18.56,261.73,-20.11Q262.47,-21.66,263.86,-22.66Q265.25,-23.67,267.18,-24.13Q269.1,-24.59,271.49,-24.59Q273.27,-24.59,274.81,-24.34Q276.34,-24.09,277.82,-23.81L277.82,0L274,0L274,-9.94L270.29,-9.35L263.97,0L259.3,0M264.97,-16.62Q264.97,-14.46,266.67,-13.28Q268.37,-12.09,271.16,-12.09Q271.21,-12.09,271.3,-12.09Q271.4,-12.09,271.69,-12.09Q271.98,-12.09,272.51,-12.12Q273.04,-12.14,274,-12.19L274,-20.74Q273.36,-20.98,272.59,-21.09Q271.82,-21.21,271.25,-21.21Q268.18,-21.21,266.58,-20.11Q264.97,-19.01,264.97,-16.62Z" transform="matrix(0.76,0,0,0.76,343.5,175.8047)" style="-webkit-tap-highlight-color: rgba(0, 0, 0, 0);" stroke-width="1"></path></svg>